<mxfile host="app.diagrams.net" modified="2022-04-01T12:31:54.396Z" agent="5.0 (Windows)" etag="KlPG0yuDh-nXTmXIyh-M" version="17.4.0" type="github">
  <diagram id="R2lEEEUBdFMjLlhIrx00" name="Page-1">
    <mxGraphModel dx="1038" dy="536" grid="1" gridSize="10" guides="1" tooltips="1" connect="1" arrows="1" fold="1" page="1" pageScale="1" pageWidth="850" pageHeight="1100" math="0" shadow="0" extFonts="Permanent Marker^https://fonts.googleapis.com/css?family=Permanent+Marker">
      <root>
        <mxCell id="0" />
        <mxCell id="1" parent="0" />
        <mxCell id="Sipy3K8fd3uLjvM3xkZX-4" value="" style="rounded=0;whiteSpace=wrap;html=1;" vertex="1" parent="1">
          <mxGeometry x="150" y="160" width="80" height="130" as="geometry" />
        </mxCell>
        <mxCell id="Sipy3K8fd3uLjvM3xkZX-7" value="" style="rounded=0;whiteSpace=wrap;html=1;" vertex="1" parent="1">
          <mxGeometry x="150" y="160" width="80" height="40" as="geometry" />
        </mxCell>
        <mxCell id="Sipy3K8fd3uLjvM3xkZX-6" value="user" style="text;html=1;strokeColor=#6c8ebf;fillColor=#dae8fc;align=center;verticalAlign=middle;whiteSpace=wrap;rounded=0;fontSize=16;" vertex="1" parent="1">
          <mxGeometry x="150" y="160" width="80" height="40" as="geometry" />
        </mxCell>
        <mxCell id="Sipy3K8fd3uLjvM3xkZX-8" value="&lt;p style=&quot;line-height: 1.8&quot;&gt;&lt;/p&gt;&lt;div&gt;&lt;u&gt;user_id&lt;/u&gt;&lt;/div&gt;&lt;div&gt;psd&lt;/div&gt;&lt;div style=&quot;line-height: 1.7&quot;&gt;state&lt;br&gt;&lt;/div&gt;&lt;p&gt;&lt;/p&gt;" style="text;html=1;strokeColor=none;fillColor=none;align=left;verticalAlign=middle;whiteSpace=wrap;rounded=0;fontSize=16;spacingLeft=10;" vertex="1" parent="1">
          <mxGeometry x="150" y="200" width="80" height="90" as="geometry" />
        </mxCell>
        <mxCell id="Sipy3K8fd3uLjvM3xkZX-13" value="" style="rounded=0;whiteSpace=wrap;html=1;" vertex="1" parent="1">
          <mxGeometry x="510" y="130" width="90" height="190" as="geometry" />
        </mxCell>
        <mxCell id="Sipy3K8fd3uLjvM3xkZX-14" value="" style="rounded=0;whiteSpace=wrap;html=1;" vertex="1" parent="1">
          <mxGeometry x="510" y="130" width="90" height="40" as="geometry" />
        </mxCell>
        <mxCell id="Sipy3K8fd3uLjvM3xkZX-15" value="book" style="text;html=1;strokeColor=#6c8ebf;fillColor=#dae8fc;align=center;verticalAlign=middle;whiteSpace=wrap;rounded=0;fontSize=16;" vertex="1" parent="1">
          <mxGeometry x="510" y="130" width="90" height="40" as="geometry" />
        </mxCell>
        <mxCell id="Sipy3K8fd3uLjvM3xkZX-16" value="&lt;p style=&quot;line-height: 1.8&quot;&gt;&lt;/p&gt;&lt;div&gt;&lt;u&gt;book_id&lt;/u&gt;&lt;/div&gt;&lt;div&gt;title&lt;/div&gt;&lt;div style=&quot;line-height: 1.7&quot;&gt;auther&lt;/div&gt;&lt;div style=&quot;line-height: 1.7&quot;&gt;amount&lt;/div&gt;&lt;div style=&quot;line-height: 1.7&quot;&gt;description&lt;br&gt;&lt;/div&gt;&lt;p&gt;&lt;/p&gt;" style="text;html=1;strokeColor=none;fillColor=none;align=left;verticalAlign=middle;whiteSpace=wrap;rounded=0;fontSize=16;spacingLeft=5;" vertex="1" parent="1">
          <mxGeometry x="510" y="170" width="90" height="150" as="geometry" />
        </mxCell>
        <mxCell id="Sipy3K8fd3uLjvM3xkZX-17" value="" style="rhombus;whiteSpace=wrap;html=1;fontSize=16;" vertex="1" parent="1">
          <mxGeometry x="300" y="205" width="140" height="80" as="geometry" />
        </mxCell>
        <mxCell id="Sipy3K8fd3uLjvM3xkZX-19" value="&lt;div&gt;record&lt;/div&gt;" style="text;html=1;strokeColor=none;fillColor=none;align=center;verticalAlign=middle;whiteSpace=wrap;rounded=0;fontSize=16;" vertex="1" parent="1">
          <mxGeometry x="340" y="230" width="60" height="30" as="geometry" />
        </mxCell>
        <mxCell id="Sipy3K8fd3uLjvM3xkZX-20" value="" style="endArrow=none;dashed=1;html=1;rounded=0;fontSize=16;" edge="1" parent="1">
          <mxGeometry width="50" height="50" relative="1" as="geometry">
            <mxPoint x="370" y="205" as="sourcePoint" />
            <mxPoint x="370" y="170" as="targetPoint" />
          </mxGeometry>
        </mxCell>
        <mxCell id="Sipy3K8fd3uLjvM3xkZX-21" value="" style="rounded=0;whiteSpace=wrap;html=1;fontSize=16;" vertex="1" parent="1">
          <mxGeometry x="335" y="120" width="70" height="50" as="geometry" />
        </mxCell>
        <mxCell id="Sipy3K8fd3uLjvM3xkZX-22" value="&lt;div&gt;amount&lt;/div&gt;&lt;div&gt;time&lt;br&gt;&lt;/div&gt;" style="text;html=1;strokeColor=none;fillColor=none;align=center;verticalAlign=middle;whiteSpace=wrap;rounded=0;fontSize=16;" vertex="1" parent="1">
          <mxGeometry x="335" y="120" width="70" height="50" as="geometry" />
        </mxCell>
        <mxCell id="Sipy3K8fd3uLjvM3xkZX-23" value="" style="endArrow=none;html=1;rounded=0;fontSize=16;exitX=1;exitY=0.5;exitDx=0;exitDy=0;entryX=0;entryY=0.5;entryDx=0;entryDy=0;" edge="1" parent="1" source="Sipy3K8fd3uLjvM3xkZX-17" target="Sipy3K8fd3uLjvM3xkZX-16">
          <mxGeometry width="50" height="50" relative="1" as="geometry">
            <mxPoint x="440" y="220" as="sourcePoint" />
            <mxPoint x="490" y="170" as="targetPoint" />
          </mxGeometry>
        </mxCell>
        <mxCell id="Sipy3K8fd3uLjvM3xkZX-24" value="" style="endArrow=none;html=1;rounded=0;fontSize=16;entryX=0;entryY=0.5;entryDx=0;entryDy=0;exitX=1;exitY=0.5;exitDx=0;exitDy=0;" edge="1" parent="1" source="Sipy3K8fd3uLjvM3xkZX-8" target="Sipy3K8fd3uLjvM3xkZX-17">
          <mxGeometry width="50" height="50" relative="1" as="geometry">
            <mxPoint x="480" y="230" as="sourcePoint" />
            <mxPoint x="530" y="180" as="targetPoint" />
          </mxGeometry>
        </mxCell>
      </root>
    </mxGraphModel>
  </diagram>
</mxfile>
